<svg width="960" height="960" viewBox="0 0 960 960" fill="none" xmlns="http://www.w3.org/2000/svg">
<rect width="960" height="960" rx="64" fill="#080808"/>
<path d="M200.545 480.727C197.182 480.727 194.28 479.985 191.841 478.5C189.417 477 187.545 474.909 186.227 472.227C184.924 469.53 184.273 466.394 184.273 462.818C184.273 459.242 184.924 456.091 186.227 453.364C187.545 450.621 189.379 448.485 191.727 446.955C194.091 445.409 196.848 444.636 200 444.636C201.818 444.636 203.614 444.939 205.386 445.545C207.159 446.152 208.773 447.136 210.227 448.5C211.682 449.848 212.841 451.636 213.705 453.864C214.568 456.091 215 458.833 215 462.091V464.364H188.091V459.727H209.545C209.545 457.758 209.152 456 208.364 454.455C207.591 452.909 206.485 451.689 205.045 450.795C203.621 449.902 201.939 449.455 200 449.455C197.864 449.455 196.015 449.985 194.455 451.045C192.909 452.091 191.72 453.455 190.886 455.136C190.053 456.818 189.636 458.621 189.636 460.545V463.636C189.636 466.273 190.091 468.508 191 470.341C191.924 472.159 193.205 473.545 194.841 474.5C196.477 475.439 198.379 475.909 200.545 475.909C201.955 475.909 203.227 475.712 204.364 475.318C205.515 474.909 206.508 474.303 207.341 473.5C208.174 472.682 208.818 471.667 209.273 470.455L214.455 471.909C213.909 473.667 212.992 475.212 211.705 476.545C210.417 477.864 208.826 478.894 206.932 479.636C205.038 480.364 202.909 480.727 200.545 480.727ZM243.159 457.545V462.545H222.795V457.545H243.159ZM277.324 452.909L272.506 454.273C272.203 453.47 271.756 452.689 271.165 451.932C270.589 451.159 269.801 450.523 268.801 450.023C267.801 449.523 266.521 449.273 264.96 449.273C262.824 449.273 261.044 449.765 259.619 450.75C258.21 451.72 257.506 452.955 257.506 454.455C257.506 455.788 257.991 456.841 258.96 457.614C259.93 458.386 261.445 459.03 263.506 459.545L268.688 460.818C271.809 461.576 274.134 462.735 275.665 464.295C277.195 465.841 277.96 467.833 277.96 470.273C277.96 472.273 277.384 474.061 276.233 475.636C275.097 477.212 273.506 478.455 271.46 479.364C269.415 480.273 267.036 480.727 264.324 480.727C260.763 480.727 257.816 479.955 255.483 478.409C253.15 476.864 251.672 474.606 251.051 471.636L256.142 470.364C256.627 472.242 257.544 473.652 258.892 474.591C260.256 475.53 262.036 476 264.233 476C266.733 476 268.718 475.47 270.188 474.409C271.672 473.333 272.415 472.045 272.415 470.545C272.415 469.333 271.991 468.318 271.142 467.5C270.294 466.667 268.991 466.045 267.233 465.636L261.415 464.273C258.218 463.515 255.869 462.341 254.369 460.75C252.884 459.144 252.142 457.136 252.142 454.727C252.142 452.758 252.695 451.015 253.801 449.5C254.922 447.985 256.445 446.795 258.369 445.932C260.309 445.068 262.506 444.636 264.96 444.636C268.415 444.636 271.127 445.394 273.097 446.909C275.081 448.424 276.491 450.424 277.324 452.909ZM291.398 459V480H286.034V433.455H291.398V450.545H291.852C292.67 448.742 293.898 447.311 295.534 446.25C297.186 445.174 299.383 444.636 302.125 444.636C304.504 444.636 306.587 445.114 308.375 446.068C310.163 447.008 311.549 448.455 312.534 450.409C313.534 452.348 314.034 454.818 314.034 457.818V480H308.67V458.182C308.67 455.409 307.951 453.265 306.511 451.75C305.087 450.22 303.11 449.455 300.58 449.455C298.822 449.455 297.246 449.826 295.852 450.568C294.473 451.311 293.383 452.394 292.58 453.818C291.792 455.242 291.398 456.97 291.398 459ZM338.028 480.727C334.877 480.727 332.112 479.977 329.733 478.477C327.369 476.977 325.521 474.879 324.188 472.182C322.869 469.485 322.21 466.333 322.21 462.727C322.21 459.091 322.869 455.917 324.188 453.205C325.521 450.492 327.369 448.386 329.733 446.886C332.112 445.386 334.877 444.636 338.028 444.636C341.18 444.636 343.938 445.386 346.301 446.886C348.68 448.386 350.528 450.492 351.847 453.205C353.18 455.917 353.847 459.091 353.847 462.727C353.847 466.333 353.18 469.485 351.847 472.182C350.528 474.879 348.68 476.977 346.301 478.477C343.938 479.977 341.18 480.727 338.028 480.727ZM338.028 475.909C340.422 475.909 342.392 475.295 343.938 474.068C345.483 472.841 346.627 471.227 347.369 469.227C348.112 467.227 348.483 465.061 348.483 462.727C348.483 460.394 348.112 458.22 347.369 456.205C346.627 454.189 345.483 452.561 343.938 451.318C342.392 450.076 340.422 449.455 338.028 449.455C335.634 449.455 333.665 450.076 332.119 451.318C330.574 452.561 329.43 454.189 328.688 456.205C327.945 458.22 327.574 460.394 327.574 462.727C327.574 465.061 327.945 467.227 328.688 469.227C329.43 471.227 330.574 472.841 332.119 474.068C333.665 475.295 335.634 475.909 338.028 475.909ZM362.034 493.091V445.091H367.216V450.636H367.852C368.246 450.03 368.792 449.258 369.489 448.318C370.201 447.364 371.216 446.515 372.534 445.773C373.867 445.015 375.67 444.636 377.943 444.636C380.883 444.636 383.473 445.371 385.716 446.841C387.958 448.311 389.708 450.394 390.966 453.091C392.223 455.788 392.852 458.97 392.852 462.636C392.852 466.333 392.223 469.538 390.966 472.25C389.708 474.947 387.966 477.038 385.739 478.523C383.511 479.992 380.943 480.727 378.034 480.727C375.792 480.727 373.996 480.356 372.648 479.614C371.299 478.856 370.261 478 369.534 477.045C368.807 476.076 368.246 475.273 367.852 474.636H367.398V493.091H362.034ZM367.307 462.545C367.307 465.182 367.693 467.508 368.466 469.523C369.239 471.523 370.367 473.091 371.852 474.227C373.337 475.348 375.155 475.909 377.307 475.909C379.549 475.909 381.42 475.318 382.92 474.136C384.436 472.939 385.572 471.333 386.33 469.318C387.102 467.288 387.489 465.03 387.489 462.545C387.489 460.091 387.11 457.879 386.352 455.909C385.61 453.924 384.481 452.356 382.966 451.205C381.466 450.038 379.58 449.455 377.307 449.455C375.125 449.455 373.292 450.008 371.807 451.114C370.322 452.205 369.201 453.735 368.443 455.705C367.686 457.659 367.307 459.939 367.307 462.545ZM417.489 431.273L402.489 487H397.58L412.58 431.273H417.489Z" fill="white"/>
</svg>
